<svg xmlns="http://www.w3.org/2000/svg" xmlns:xlink="http://www.w3.org/1999/xlink" width="70.151" height="65.259" viewBox="0 0 70.151 65.259">
  <defs>
    <linearGradient id="linear-gradient" x1="0.046" y1="0.5" x2="0.951" y2="0.5" gradientUnits="objectBoundingBox">
      <stop offset="0" stop-color="#efbd58"/>
      <stop offset="0.489" stop-color="#e45881"/>
      <stop offset="1" stop-color="#6080ea"/>
    </linearGradient>
  </defs>
  <path id="Hospitality" d="M3.746,67.668A1.03,1.03,0,0,1,3.4,66.9V49.077a1.027,1.027,0,0,1,1.028-1.028H15.569l8.982-11.555H9.033a3.219,3.219,0,0,1-.77-6.344,37.634,37.634,0,0,1,4.552-8.65A1.028,1.028,0,0,1,14.5,22.679a36.772,36.772,0,0,0-4,7.377H68.863A36.835,36.835,0,0,0,63.1,20.369,30.287,30.287,0,0,0,54,12.88,31.6,31.6,0,0,0,35.073,9.794h-.015a28.77,28.77,0,0,0-18.068,9.729,1.028,1.028,0,0,1-1.535-1.365,31.921,31.921,0,0,1,9.593-7.426A31.012,31.012,0,0,1,33.923,7.89a5.786,5.786,0,0,1,11.516,0A30.914,30.914,0,0,1,55,11.087a32.375,32.375,0,0,1,9.728,8.029A38.008,38.008,0,0,1,71.1,30.15a3.219,3.219,0,0,1-.77,6.344H56.638a3.788,3.788,0,0,1-.68,4.39L43.513,54.61l-.038.039A3.761,3.761,0,0,1,41.5,55.684L17.1,61.71v3.817a1.028,1.028,0,0,1-.907,1.021L4.545,67.926a1.1,1.1,0,0,1-.121.006A1.017,1.017,0,0,1,3.746,67.668Zm1.706-1.92,9.591-1.134V50.1H5.452ZM26.788,36.965c-.009.013-9.689,12.464-9.689,12.464V59.594l23.938-5.913c.023-.005.047-.011.07-.014a1.729,1.729,0,0,0,.9-.459L54.453,39.486l.037-.04a1.727,1.727,0,0,0-2.433-2.452L40.21,48.752a1.029,1.029,0,0,1-.724.3H24.874a1.034,1.034,0,0,1-.865-1.583c.006-.01,5.288-8.124,5.383-8.261a1.723,1.723,0,0,0-.2-2.21,1.932,1.932,0,0,0-1.316-.507A1.338,1.338,0,0,0,26.788,36.965Zm19.1.03L35.813,47h3.25l9.6-9.525a1.736,1.736,0,0,0-1.554-.976A1.717,1.717,0,0,0,45.889,36.994Zm-6.167,0L29.645,47H32.9l9.6-9.525a1.742,1.742,0,0,0-1.554-.976A1.713,1.713,0,0,0,39.722,36.994Zm-8.645,3.387c-.1.141-4.271,6.535-4.271,6.535l10.5-10.422H31.336A3.77,3.77,0,0,1,31.078,40.381ZM7.87,33.275a1.165,1.165,0,0,0,1.164,1.164H70.328a1.164,1.164,0,0,0,0-2.327H9.033A1.165,1.165,0,0,0,7.87,33.275ZM42.978,7.581c.112.01.225.018.337.029a3.732,3.732,0,0,0-7.267,0c.149-.014.3-.026.452-.039.741-.064,1.483-.108,2.227-.126.317-.008.634-.013.951-.013Q41.329,7.432,42.978,7.581Z" transform="translate(-3.397 -2.673)" fill="url(#linear-gradient)"/>
</svg>
