<svg xmlns="http://www.w3.org/2000/svg" xmlns:xlink="http://www.w3.org/1999/xlink" width="62.869" height="62.878" viewBox="0 0 62.869 62.878">
  <defs>
    <linearGradient id="linear-gradient" x1="0.046" y1="0.5" x2="0.951" y2="0.5" gradientUnits="objectBoundingBox">
      <stop offset="0" stop-color="#efbd58"/>
      <stop offset="0.489" stop-color="#e45881"/>
      <stop offset="1" stop-color="#6080ea"/>
    </linearGradient>
  </defs>
  <path id="Infrastructure" d="M35.42,66.742a2.034,2.034,0,0,1-2.029-2.028v-2.5a26.424,26.424,0,0,1-6.631-2.16l-1.48,2.018a2.028,2.028,0,0,1-2.84.446l-4.918-3.569a2.046,2.046,0,0,1-.811-1.338,1.994,1.994,0,0,1,.374-1.5l1.471-2.029a27.535,27.535,0,0,1-4.1-5.647l-2.382.77a2.02,2.02,0,0,1-2.556-1.309L7.493,41.7l1.927-.628,2.028,6.205,2.383-.77-.031-.021a2.047,2.047,0,0,1,2.4.943A25.057,25.057,0,0,0,20,52.658a2,2,0,0,1,.173,2.6l-1.461,2.018,4.919,3.569,1.47-2.028a2.032,2.032,0,0,1,2.5-.639,24.723,24.723,0,0,0,6.135,2.008,2.021,2.021,0,0,1,1.673,1.987v2.5h6.084v-2.5a2.039,2.039,0,0,1,1.673-1.987,24.974,24.974,0,0,0,6.115-2,2.039,2.039,0,0,1,2.515.629l1.48,2.038,4.918-3.569-1.471-2.029a2.015,2.015,0,0,1,.173-2.586,25.039,25.039,0,0,0,3.782-5.212,2.051,2.051,0,0,1,2.414-.963l2.383.78L67.5,41.058l1.927.628L67.4,47.892a2,2,0,0,1-1,1.187,2.064,2.064,0,0,1-1.552.122l-2.383-.781a26.385,26.385,0,0,1-4.086,5.648l1.46,2.039a2.035,2.035,0,0,1-.445,2.839l-4.919,3.569a1.975,1.975,0,0,1-1.521.365,2,2,0,0,1-1.319-.822l-1.46-2.018a26.657,26.657,0,0,1-6.642,2.17v2.5A2.034,2.034,0,0,1,41.5,66.742Zm3.032-10.15A21.182,21.182,0,0,1,18.14,41.686l1.937-.608a19.274,19.274,0,0,0,36.769,0l1.937.608A21.183,21.183,0,0,1,38.471,56.592ZM7.037,39.354V37.326H69.906v2.029ZM63.822,35.3V22.116h-7.1V35.3H54.7V5.891H44.555V35.3H42.528V17.046H34.415V35.3H32.387V11.438L27.318,7.21l-5.071,4.228V35.3H20.219V21.1h-7.1V35.3H11.093V20.088a1.017,1.017,0,0,1,1.014-1.014h8.112V10.962a1,1,0,0,1,.365-.781l6.084-5.07a1.011,1.011,0,0,1,1.3,0l6.084,5.07a1.007,1.007,0,0,1,.364.781v4.056h8.113V4.878a1.017,1.017,0,0,1,1.014-1.014H55.71a1.017,1.017,0,0,1,1.013,1.014v15.21h8.113A1.017,1.017,0,0,1,65.849,21.1V35.3ZM50.639,21.1V19.074h2.029V21.1Zm-4.055,0V19.074h2.028V21.1ZM24.276,20.088V18.06H30.36v2.028Zm26.364-4.056V14h2.029v2.028Zm-4.055,0V14h2.028v2.028ZM24.276,15.018V12.99H30.36v2.029Zm26.364-4.056V8.934h2.029v2.028Zm-4.055,0V8.934h2.028v2.028Z" transform="translate(-7.037 -3.864)" fill="url(#linear-gradient)"/>
</svg>
