<svg xmlns="http://www.w3.org/2000/svg" xmlns:xlink="http://www.w3.org/1999/xlink" width="62.656" height="63.197" viewBox="0 0 62.656 63.197">
  <defs>
    <linearGradient id="linear-gradient" x1="0.046" y1="0.5" x2="0.951" y2="0.5" gradientUnits="objectBoundingBox">
      <stop offset="0" stop-color="#efbd58"/>
      <stop offset="0.489" stop-color="#e45881"/>
      <stop offset="1" stop-color="#6080ea"/>
    </linearGradient>
  </defs>
  <path id="Manufacturing" d="M11.339,64.759A6.3,6.3,0,0,1,9.693,52.384V42.167a2.475,2.475,0,0,1,2.475-2.473h10.32a2.475,2.475,0,0,1,2.475,2.473v10h3.768V42.035a2.344,2.344,0,0,1,2.344-2.341H41.659A2.344,2.344,0,0,1,44,42.035V52.166h3.768V42.035a2.343,2.343,0,0,1,2.343-2.341H60.7a2.344,2.344,0,0,1,2.343,2.341V52.384A6.3,6.3,0,0,1,61.4,64.759Zm-4.261-6.3a4.261,4.261,0,0,0,4.261,4.258H61.4a4.258,4.258,0,1,0,0-8.516H11.339A4.261,4.261,0,0,0,7.079,58.462ZM49.811,42.035V52.166H61V42.035a.3.3,0,0,0-.3-.3H50.114A.3.3,0,0,0,49.811,42.035Zm-19.039,0V52.166H41.963V42.035a.3.3,0,0,0-.3-.3H31.075A.3.3,0,0,0,30.772,42.035Zm-19.04.132v10H22.924v-10a.436.436,0,0,0-.436-.435H12.168A.436.436,0,0,0,11.732,42.167Zm41.7,16.3A3.739,3.739,0,1,1,57.169,62.2,3.74,3.74,0,0,1,53.429,58.462Zm2.04,0a1.7,1.7,0,1,0,1.7-1.7A1.7,1.7,0,0,0,55.47,58.462Zm-12.441,0A3.739,3.739,0,1,1,46.768,62.2,3.74,3.74,0,0,1,43.029,58.462Zm2.039,0a1.7,1.7,0,1,0,1.7-1.7A1.7,1.7,0,0,0,45.068,58.462Zm-12.441,0a3.74,3.74,0,1,1,3.74,3.738A3.74,3.74,0,0,1,32.628,58.462Zm2.04,0a1.7,1.7,0,1,0,1.7-1.7A1.7,1.7,0,0,0,34.668,58.462Zm-12.441,0a3.739,3.739,0,1,1,3.74,3.738A3.74,3.74,0,0,1,22.227,58.462Zm2.039,0a1.7,1.7,0,1,0,1.7-1.7A1.7,1.7,0,0,0,24.267,58.462Zm-12.44,0A3.739,3.739,0,1,1,15.566,62.2,3.74,3.74,0,0,1,11.827,58.462Zm2.039,0a1.7,1.7,0,1,0,1.7-1.7A1.7,1.7,0,0,0,13.866,58.462ZM41.118,36.538A1.019,1.019,0,0,1,40.4,35.29l1.054-3.933-2.587-2.146V31.12a1.02,1.02,0,0,1-1.02,1.02H34.889a1.02,1.02,0,0,1-1.02-1.02V29.211l-2.587,2.147,1.054,3.932a1.02,1.02,0,0,1-1.97.528l-1.223-4.564a1.019,1.019,0,0,1,.333-1.049l4.393-3.644V24.624l-.442-1.148a10.318,10.318,0,0,1-2.03-.841l-1.3.576A1.019,1.019,0,0,1,28.961,23L26.87,20.91a1.02,1.02,0,0,1-.211-1.135l.578-1.3A10.446,10.446,0,0,1,26.4,16.45l-1.327-.511a1.019,1.019,0,0,1-.653-.951V12.031a1.021,1.021,0,0,1,.653-.951l1.327-.51a10.328,10.328,0,0,1,.841-2.029l-.578-1.3a1.021,1.021,0,0,1,.211-1.135l2.092-2.09A1.019,1.019,0,0,1,30.1,3.806l1.3.578a10.37,10.37,0,0,1,2.029-.841l.513-1.328a1.02,1.02,0,0,1,.951-.653h2.958a1.02,1.02,0,0,1,.952.653l.51,1.328a10.282,10.282,0,0,1,2.028.84l1.3-.578a1.019,1.019,0,0,1,1.136.211l2.091,2.09a1.018,1.018,0,0,1,.211,1.134L45.5,8.54a10.289,10.289,0,0,1,.841,2.03l1.326.509a1.021,1.021,0,0,1,.653.951v2.957a1.019,1.019,0,0,1-.653.951l-1.327.51a10.387,10.387,0,0,1-.841,2.027l.576,1.3a1.016,1.016,0,0,1-.211,1.133L43.773,23a1.019,1.019,0,0,1-1.134.211l-1.3-.575a10.267,10.267,0,0,1-2.029.84l-.445,1.156v1.93l4.393,3.644a1.019,1.019,0,0,1,.333,1.049l-1.223,4.564a1.019,1.019,0,0,1-1.249.72ZM31.991,20.624a8.351,8.351,0,0,0,2.437,1.009,1.018,1.018,0,0,1,.716.625l.7,1.81a1.02,1.02,0,0,1,.067.366V30.1h.914V24.435c0,.563-.049-.053.071-.366l.7-1.81a1.018,1.018,0,0,1,.716-.625,8.271,8.271,0,0,0,2.431-1.007,1.023,1.023,0,0,1,.95-.065l1.136.5,1.1-1.1-.5-1.135a1.021,1.021,0,0,1,.063-.946,8.382,8.382,0,0,0,1.01-2.433,1.016,1.016,0,0,1,.625-.715l1.157-.445V12.731l-1.157-.446a1.018,1.018,0,0,1-.625-.715,8.269,8.269,0,0,0-1.008-2.434,1.02,1.02,0,0,1-.065-.948l.5-1.136-1.1-1.1-1.136.5a1.021,1.021,0,0,1-.95-.063,8.275,8.275,0,0,0-2.432-1.008,1.019,1.019,0,0,1-.716-.626L37.147,3.6H35.59l-.448,1.161a1.02,1.02,0,0,1-.716.625,8.275,8.275,0,0,0-2.432,1.008,1.021,1.021,0,0,1-.949.063l-1.136-.5-1.1,1.1.5,1.134a1.02,1.02,0,0,1-.063.95,8.318,8.318,0,0,0-1.012,2.436,1.02,1.02,0,0,1-.625.713l-1.157.446v1.557l1.157.445a1.018,1.018,0,0,1,.625.712,8.3,8.3,0,0,0,1.011,2.433,1.017,1.017,0,0,1,.064.95l-.5,1.135,1.1,1.1,1.136-.5a1.018,1.018,0,0,1,.946.063Zm-1.8-7.116a6.181,6.181,0,1,1,6.179,6.179A6.176,6.176,0,0,1,30.188,13.508Zm2.039,0a4.141,4.141,0,1,0,4.14-4.137A4.14,4.14,0,0,0,32.227,13.508Z" transform="translate(-5.039 -1.563)" fill="url(#linear-gradient)"/>
</svg>
