<svg xmlns="http://www.w3.org/2000/svg" xmlns:xlink="http://www.w3.org/1999/xlink" width="61.86" height="63.437" viewBox="0 0 61.86 63.437">
  <defs>
    <linearGradient id="linear-gradient" x1="0.046" y1="0.5" x2="0.951" y2="0.5" gradientUnits="objectBoundingBox">
      <stop offset="0" stop-color="#efbd58"/>
      <stop offset="0.489" stop-color="#e45881"/>
      <stop offset="1" stop-color="#6080ea"/>
    </linearGradient>
  </defs>
  <path id="Public_Sector" data-name="Public Sector" d="M37.269,68.252a3.2,3.2,0,0,1-2.285-.965l-9.7-9.944-.377-.391c-1.352-1.408-3.775-3.928-6.917-5.111l-.37,1.07a.942.942,0,0,1-.891.634H8.484a.942.942,0,0,1-.942-.941V29.229a.942.942,0,0,1,.756-.923,27.128,27.128,0,0,1,16.279,1.823A.941.941,0,0,1,25.1,31.3l-.676,1.954a17.59,17.59,0,0,0,10.36.259l.3-.279a8.992,8.992,0,0,1,8.8-2.142c.684.2,1.35.406,1.993.61a20.9,20.9,0,0,0,6.562,1.305L51.845,31.3a.942.942,0,0,1,.521-1.174,27.128,27.128,0,0,1,16.279-1.823.942.942,0,0,1,.756.923V52.6a.942.942,0,0,1-.942.941h-8.24a.941.941,0,0,1-.89-.634l-.437-1.264c-.212.1-.424.211-.643.32-.864.435-1.758.884-2.726,1.279a5.3,5.3,0,0,1-.971.292,3.78,3.78,0,0,1-3.708,6.088,3.775,3.775,0,0,1-3.778,3.569,3.816,3.816,0,0,1-1.04-.143,3.784,3.784,0,0,1-5.611,2.9,3.265,3.265,0,0,1-3.124,2.3ZM18.6,50.061c3.562,1.323,6.193,4.059,7.66,5.586.131.138.254.265.366.381l9.7,9.944a1.324,1.324,0,0,0,.948.4,1.378,1.378,0,0,0,.993-2.353l0,0,0,0-5.406-5.54a.942.942,0,0,1,1.349-1.316L40.918,64a1.9,1.9,0,0,0,2.689,0,1.91,1.91,0,0,0,0-2.689l0,0,0,0L38.193,55.76a.942.942,0,1,1,1.348-1.316l6.18,6.313a1.9,1.9,0,0,0,2.688-2.689l0-.005,0,0L43,52.52A.942.942,0,1,1,44.345,51.2l5.928,6.062a1.9,1.9,0,1,0,2.675-2.7l-1.243-1.3a5.14,5.14,0,0,1-1.673-1.122L39.766,41.88c-.9.733-2.066,1.793-2.066,3.276,0,4.3-4.2,6.866-8.26,6.866a.941.941,0,0,1-.941-.941V41.613a4.946,4.946,0,0,1,1.594-3.687l2.18-2.05a20.416,20.416,0,0,1-2.556.169,18.217,18.217,0,0,1-5.91-1.007Zm21.89-10.118L51.364,50.808a3.091,3.091,0,0,0,3.446.694c.9-.367,1.761-.8,2.593-1.218.284-.142.574-.288.867-.431L53.085,34.88a21.537,21.537,0,0,1-7.779-1.38c-.631-.2-1.283-.406-1.941-.593a7.145,7.145,0,0,0-7,1.7L31.382,39.3a3.025,3.025,0,0,0-1,2.315v8.468A7.414,7.414,0,0,0,33.9,48.729a4.418,4.418,0,0,0,1.914-3.572c0-2.511,1.945-4.081,2.989-4.924.158-.128.3-.238.4-.327a.941.941,0,0,1,1.292.037Zm13.426-8.414L60.89,51.662h6.627V30.012a24.316,24.316,0,0,0-4.086-.346A25.909,25.909,0,0,0,53.918,31.529ZM9.427,30.012V51.662h6.627l6.972-20.133a25.907,25.907,0,0,0-9.513-1.863A24.319,24.319,0,0,0,9.427,30.012Zm20.825.281a.942.942,0,0,1-.942-.941V26.685H16.556a.942.942,0,0,1-.942-.941V21.8a7.919,7.919,0,0,1,4.768-7.276,5.775,5.775,0,0,1-1.5-3.88,5.893,5.893,0,0,1,11.785,0,5.772,5.772,0,0,1-1.5,3.883,7.983,7.983,0,0,1,4.073,4.028,8.11,8.11,0,0,1,.838-.423,5.775,5.775,0,0,1-1.5-3.88,5.893,5.893,0,0,1,11.785,0,5.775,5.775,0,0,1-1.5,3.88,7.766,7.766,0,0,1,.838.423,7.979,7.979,0,0,1,4.072-4.028,5.776,5.776,0,0,1-1.5-3.883,5.893,5.893,0,0,1,11.785,0,5.775,5.775,0,0,1-1.5,3.88A7.92,7.92,0,0,1,61.331,21.8v3.939a.942.942,0,0,1-.942.942H47.634v2.667a.942.942,0,0,1-.942.941Zm.942-4.881v3H45.75v-3a6.041,6.041,0,0,0-4.721-5.9,5.94,5.94,0,0,1-5.115,0A6.041,6.041,0,0,0,31.194,25.412Zm14.061-5.67A7.915,7.915,0,0,1,47.609,24.8H59.446v-3a6.041,6.041,0,0,0-4.72-5.9,5.946,5.946,0,0,1-5.114,0A6.08,6.08,0,0,0,45.255,19.742ZM17.5,21.8v3H29.335a7.913,7.913,0,0,1,2.354-5.058A6.078,6.078,0,0,0,27.332,15.9a5.946,5.946,0,0,1-5.114,0A6.041,6.041,0,0,0,17.5,21.8Zm16.967-7.547a4.009,4.009,0,1,0,4.008-3.947A3.983,3.983,0,0,0,34.464,14.256Zm13.7-3.608A4.009,4.009,0,1,0,52.169,6.7,3.983,3.983,0,0,0,48.16,10.648Zm-27.392,0A4.009,4.009,0,1,0,24.775,6.7,3.982,3.982,0,0,0,20.767,10.648Z" transform="translate(-7.542 -4.816)" fill="url(#linear-gradient)"/>
</svg>
