<svg xmlns="http://www.w3.org/2000/svg" xmlns:xlink="http://www.w3.org/1999/xlink" width="54.438" height="54.436" viewBox="0 0 54.438 54.436">
  <defs>
    <linearGradient id="linear-gradient" x1="0.046" y1="0.5" x2="0.951" y2="0.5" gradientUnits="objectBoundingBox">
      <stop offset="0" stop-color="#efbd58"/>
      <stop offset="0.489" stop-color="#e45881"/>
      <stop offset="1" stop-color="#6080ea"/>
    </linearGradient>
  </defs>
  <path id="Retail" d="M7.342,57.761a.85.85,0,0,1-.851-.85V53.088a.85.85,0,0,1,.851-.851H9.554v-24.4a.851.851,0,0,1,1.7,0v24.4H40.587v-20.7a.85.85,0,0,1,.851-.851H52.462a.85.85,0,0,1,.85.851v20.7h2.853V27.832a.851.851,0,1,1,1.7,0V52.238h2.211a.85.85,0,0,1,.85.851v3.822a.85.85,0,0,1-.85.85Zm.851-1.7H59.227V53.939H8.193Zm34.1-3.822h9.323V32.385H42.288Zm-26.127-7.68a.85.85,0,0,1-.851-.851V31.534a.85.85,0,0,1,.851-.851H36a.85.85,0,0,1,.851.851V43.708a.85.85,0,0,1-.851.851Zm.851-1.7H35.147V32.385H17.012ZM29.23,24.5a6.275,6.275,0,0,1-.856-1.149,6.115,6.115,0,0,1-10.74-.233A6.025,6.025,0,0,1,6.7,18.36L9.554,7.852V4.175a.851.851,0,0,1,.848-.851H57.016a.85.85,0,0,1,.851.851V7.844l2.849,10.513A6.024,6.024,0,0,1,49.785,23.12a6.124,6.124,0,0,1-10.74.234A6.275,6.275,0,0,1,38.19,24.5a6.171,6.171,0,0,1-8.96,0Zm.048-5.139-.035.654a4.466,4.466,0,1,0,8.916,0l-.035-.654L37.557,8.809H29.845ZM18.7,19.578a4.441,4.441,0,1,0,8.818.948l.033-.6.6-11.114h-7.7Zm21.172.349.032.6a4.442,4.442,0,0,0,7.816,2.638v0a4.432,4.432,0,0,0,1-3.591L46.971,8.813h-7.7Zm10.744.706A4.333,4.333,0,1,0,59.074,18.8l-2.707-10H48.694ZM8.346,18.8A4.332,4.332,0,1,0,16.8,20.632L17.02,19.3l.521-3.2,1.185-7.29H11.053Zm2.909-11.7H56.165V5.026H11.255Z" transform="translate(-6.492 -3.325)" fill="url(#linear-gradient)"/>
</svg>
