<svg xmlns="http://www.w3.org/2000/svg" xmlns:xlink="http://www.w3.org/1999/xlink" width="72.176" height="59.697" viewBox="0 0 72.176 59.697">
  <defs>
    <linearGradient id="linear-gradient" x1="0.046" y1="0.5" x2="0.951" y2="0.5" gradientUnits="objectBoundingBox">
      <stop offset="0" stop-color="#efbd58"/>
      <stop offset="0.489" stop-color="#e45881"/>
      <stop offset="1" stop-color="#6080ea"/>
    </linearGradient>
  </defs>
  <path id="Smart_Cities" data-name="Smart Cities" d="M70.323,65.148H6.62a4.067,4.067,0,1,1,0-8.127H7V35.92a1.059,1.059,0,0,1,.711-1l15.6-5.531v-13.1a1.066,1.066,0,0,1,1.066-1.067H36.119V6.521a1.066,1.066,0,0,1,1.067-1.066H60.278a1.067,1.067,0,0,1,1.067,1.066V19.247l7.109-3.085a1.1,1.1,0,0,1,1.017.085,1.072,1.072,0,0,1,.476.9V57.021h.377a4.067,4.067,0,1,1,.17,8.131C70.437,65.152,70.38,65.151,70.323,65.148Zm0-2.119a1.934,1.934,0,1,0,0-3.861H6.62a1.934,1.934,0,1,0,0,3.861ZM52.763,25.348V57.021H67.813V54.412h-8.1V52.279h8.1V47.9h-8.1V45.767h8.1V41.387h-8.1V39.254h8.1V34.875h-8.1V32.742h8.1V28.37h-8.1V26.237h8.1V18.8ZM38.237,15.216h4.977a1.067,1.067,0,0,1,1.067,1.067V57.021H50.63V24.637a1.066,1.066,0,0,1,.64-1l7.949-3.456V7.574H38.252ZM29.749,27.581a1.06,1.06,0,0,1,.455.868V57.021H42.148V52.649H34.114V50.516h8.034V46.855H34.114V44.722h8.034V41.074H34.114V38.942h8.034V35.3H34.114V33.169h8.034V29.543H34.114V27.41h8.034V23.854H34.114V21.722h8.048V17.335H25.454l-.014,11.326,3.342-1.181a1.032,1.032,0,0,1,.967.1Zm-6.3,18.841a1.066,1.066,0,0,1,1.066,1.067v9.534H28.07V29.955L9.13,36.674l.014,20.347H12.7V47.488a1.066,1.066,0,0,1,1.066-1.067Zm-3.8,10.6h2.7V48.554h-2.7Zm-4.835,0h2.7V48.554h-2.7ZM13.766,44.338A1.066,1.066,0,0,1,12.7,43.271v-3.8a1.067,1.067,0,0,1,1.066-1.066h9.67A1.067,1.067,0,0,1,24.5,39.475v3.8a1.066,1.066,0,0,1-1.066,1.066ZM14.832,42.2h7.537V40.541H14.832Zm40.035-21.57V18.5h1.955v2.133Zm-3.555,0V18.5h1.956v2.133Zm-3.555,0V18.5h1.956v2.133Zm7.11-4.266V14.235h1.955v2.133Zm-3.555,0V14.235h1.956v2.133Zm-3.555,0V14.235h1.956v2.133Zm7.11-4.266V9.969h1.955V12.1Zm-3.555,0V9.969h1.956V12.1Zm-3.555,0V9.969h1.956V12.1Zm-3.554,0V9.969h1.955V12.1Zm-3.555,0V9.969H42.6V12.1Z" transform="translate(-2.384 -5.455)" fill="url(#linear-gradient)"/>
</svg>
