<svg xmlns="http://www.w3.org/2000/svg" xmlns:xlink="http://www.w3.org/1999/xlink" width="20.106" height="16.727" viewBox="0 0 20.106 16.727">
  <defs>
    <linearGradient id="linear-gradient" y1="0.5" x2="1" y2="0.5" gradientUnits="objectBoundingBox">
      <stop offset="0" stop-color="#f18e67"/>
      <stop offset="0.479" stop-color="#ec5a79"/>
      <stop offset="1" stop-color="#966cc2"/>
    </linearGradient>
  </defs>
  <g id="right-arrow_1_" data-name="right-arrow(1)" transform="translate(0 -41.346)">
    <g id="Group_4" data-name="Group 4" transform="translate(0 41.346)">
      <path id="Path_13" data-name="Path 13" d="M19.785,48.928l-7.261-7.261a1.1,1.1,0,0,0-1.556,0l-.659.659a1.092,1.092,0,0,0-.321.778,1.114,1.114,0,0,0,.321.787l4.236,4.245H1.086A1.074,1.074,0,0,0,0,49.219v.932a1.115,1.115,0,0,0,1.086,1.13H14.592L10.308,55.55a1.09,1.09,0,0,0,0,1.545l.659.657a1.1,1.1,0,0,0,1.556,0l7.261-7.261a1.11,1.11,0,0,0,0-1.562Z" transform="translate(0 -41.346)" fill="url(#linear-gradient)"/>
    </g>
  </g>
</svg>
