<svg id="event" xmlns="http://www.w3.org/2000/svg" width="26.458" height="27.208" viewBox="0 0 26.458 27.208">
  <g id="Group_894" data-name="Group 894">
    <g id="Group_893" data-name="Group 893" transform="translate(0)">
      <path id="Path_1677" data-name="Path 1677" d="M29.234,12.441h0V5.579A2.986,2.986,0,0,0,26.268,2.6H25.9V2.136a2.107,2.107,0,1,0-4.214,0V2.6H13.959V2.136a2.136,2.136,0,1,0-4.272,0V2.6H9.367A2.979,2.979,0,0,0,6.409,5.579V21.336a2.979,2.979,0,0,0,2.958,2.979h9.282A8.041,8.041,0,1,0,29.234,12.441ZM22.855,2.136a.923.923,0,0,1,.907-.939h.025a.932.932,0,0,1,.942.922q0,.009,0,.018V4.416H22.855Zm-12,0a.95.95,0,0,1,.96-.94h0a.955.955,0,0,1,.969.939V4.416H10.857ZM7.58,5.579A1.807,1.807,0,0,1,9.367,3.772h.319V5.025a.572.572,0,0,0,.593.561h3.08a.578.578,0,0,0,.6-.561V3.772h7.725V5.025a.545.545,0,0,0,.53.561h3.112a.554.554,0,0,0,.572-.535c0-.009,0-.017,0-.026V3.772h.369a1.814,1.814,0,0,1,1.8,1.807v1.88H7.58ZM9.367,23.144A1.808,1.808,0,0,1,7.58,21.336V8.63H28.064V11.8A8.048,8.048,0,0,0,17.838,23.144Zm15.46,2.883a6.865,6.865,0,1,1,6.865-6.865h0A6.872,6.872,0,0,1,24.827,26.027Z" transform="translate(-6.409)" fill="#191838"/>
    </g>
  </g>
  <g id="Group_896" data-name="Group 896" transform="translate(17.441 15.057)">
    <g id="Group_895" data-name="Group 895">
      <path id="Path_1678" data-name="Path 1678" d="M308.144,261.385H305.58v-3.522a.585.585,0,1,0-1.171,0v4.106a.6.6,0,0,0,.6.586h3.138a.585.585,0,1,0,0-1.171Z" transform="translate(-304.409 -257.278)" fill="#191838"/>
    </g>
  </g>
</svg>
