<svg xmlns="http://www.w3.org/2000/svg" xmlns:xlink="http://www.w3.org/1999/xlink" width="64.795" height="64.541" viewBox="0 0 64.795 64.541">
  <defs>
    <linearGradient id="linear-gradient" x1="0.046" y1="0.5" x2="0.951" y2="0.5" gradientUnits="objectBoundingBox">
      <stop offset="0" stop-color="#efbd58"/>
      <stop offset="0.489" stop-color="#e45881"/>
      <stop offset="1" stop-color="#6080ea"/>
    </linearGradient>
  </defs>
  <path id="Intersection_48" data-name="Intersection 48" d="M-8558.1,8427.573a5.7,5.7,0,0,1-5.7-5.7v-53.15a5.7,5.7,0,0,1,5.7-5.7h53.4a5.7,5.7,0,0,1,5.7,5.7v53.15a5.7,5.7,0,0,1-5.7,5.7Zm-1.9-5.7a1.9,1.9,0,0,0,1.9,1.9h53.4a1.9,1.9,0,0,0,1.9-1.9v-39.862H-8560Zm0-53.15v9.492h57.2v-9.492a1.9,1.9,0,0,0-1.9-1.9h-53.4A1.9,1.9,0,0,0-8560,8368.728Zm22.157,49.2a1.9,1.9,0,0,1-1-2.493l11.391-26.577a1.9,1.9,0,0,1,2.49-1,1.9,1.9,0,0,1,1,2.493l-11.391,26.575a1.9,1.9,0,0,1-1.744,1.15A1.931,1.931,0,0,1-8537.845,8417.93Zm16.351-6.255a1.9,1.9,0,0,1,.3-2.669l7.64-6.11-7.64-6.11a1.9,1.9,0,0,1-.3-2.667,1.9,1.9,0,0,1,2.667-.3l9.493,7.592a1.9,1.9,0,0,1,0,2.964l-9.493,7.595a1.883,1.883,0,0,1-1.183.415A1.9,1.9,0,0,1-8521.494,8411.675Zm-22.482.3-9.491-7.595a1.9,1.9,0,0,1,0-2.964l9.491-7.592a1.9,1.9,0,0,1,2.67.3,1.9,1.9,0,0,1-.3,2.667l-7.64,6.11,7.64,6.11a1.9,1.9,0,0,1,.3,2.669,1.9,1.9,0,0,1-1.484.712A1.9,1.9,0,0,1-8543.977,8411.972Zm23.967-37.551a1.9,1.9,0,0,1-1.9-1.9,1.9,1.9,0,0,1,1.9-1.9h11.388a1.9,1.9,0,0,1,1.9,1.9,1.9,1.9,0,0,1-1.9,1.9Zm-20.882-2.056a1.7,1.7,0,0,1,1.694-1.7,1.7,1.7,0,0,1,1.7,1.7,1.7,1.7,0,0,1-1.7,1.694A1.7,1.7,0,0,1-8540.892,8372.365Zm-7.636,0a1.943,1.943,0,0,1,2.121-1.7,1.943,1.943,0,0,1,2.12,1.7,1.943,1.943,0,0,1-2.12,1.694A1.943,1.943,0,0,1-8548.527,8372.365Zm-7.635,0a1.943,1.943,0,0,1,2.12-1.7,1.945,1.945,0,0,1,2.121,1.7,1.945,1.945,0,0,1-2.121,1.694A1.943,1.943,0,0,1-8556.162,8372.365Z" transform="translate(8563.798 -8363.032)" fill="url(#linear-gradient)"/>
</svg>
