<svg xmlns="http://www.w3.org/2000/svg" xmlns:xlink="http://www.w3.org/1999/xlink" width="61.889" height="61.891" viewBox="0 0 61.889 61.891">
  <defs>
    <linearGradient id="linear-gradient" x1="0.046" y1="0.5" x2="0.951" y2="0.5" gradientUnits="objectBoundingBox">
      <stop offset="0" stop-color="#efbd58"/>
      <stop offset="0.489" stop-color="#e45881"/>
      <stop offset="1" stop-color="#6080ea"/>
    </linearGradient>
  </defs>
  <path id="Confidentiality" d="M-7478.374,5083.919c-.6-.255-14.714-6.4-14.714-19.047v-10.359a1.935,1.935,0,0,1,1.312-1.833l13.539-4.6a1.917,1.917,0,0,1,1.244,0l13.538,4.6a1.935,1.935,0,0,1,1.312,1.833v10.359c0,12.644-14.115,18.792-14.714,19.049a1.982,1.982,0,0,1-.758.153A1.956,1.956,0,0,1-7478.374,5083.919Zm-10.845-28.023v8.974c0,8.594,8.912,13.763,11.6,15.124,2.693-1.361,11.6-6.53,11.6-15.124V5055.9l-11.6-3.948Zm-27.723,20.441a7.1,7.1,0,0,1-7.092-7.089v-39.973a7.1,7.1,0,0,1,7.092-7.091h29.656a7.1,7.1,0,0,1,7.091,7.091v14a1.937,1.937,0,0,1-1.935,1.936,1.937,1.937,0,0,1-1.934-1.936v-14a3.226,3.226,0,0,0-3.223-3.222h-29.656a3.226,3.226,0,0,0-3.223,3.222v39.973a3.228,3.228,0,0,0,3.223,3.222h20.217a1.934,1.934,0,0,1,1.934,1.934,1.934,1.934,0,0,1-1.934,1.934Zm37.315-4.434-5.158-5.158a1.935,1.935,0,0,1,0-2.737,1.938,1.938,0,0,1,2.737,0l3.582,3.582,6.4-8.53a1.929,1.929,0,0,1,2.707-.384,1.932,1.932,0,0,1,.386,2.707l-7.738,10.316a1.933,1.933,0,0,1-1.41.768c-.043,0-.087,0-.134,0A1.924,1.924,0,0,1-7479.627,5071.9Zm-34.735-14.9a1.935,1.935,0,0,1-1.934-1.936,1.934,1.934,0,0,1,1.934-1.933h14.183a1.934,1.934,0,0,1,1.933,1.933,1.935,1.935,0,0,1-1.933,1.936Zm0-10.316a1.934,1.934,0,0,1-1.934-1.934,1.933,1.933,0,0,1,1.934-1.933h24.5a1.933,1.933,0,0,1,1.933,1.933,1.933,1.933,0,0,1-1.933,1.934Zm0-10.314a1.935,1.935,0,0,1-1.934-1.935,1.935,1.935,0,0,1,1.934-1.934h11.6a1.936,1.936,0,0,1,1.934,1.934,1.936,1.936,0,0,1-1.934,1.935Z" transform="translate(7524.034 -5022.183)" fill="url(#linear-gradient)"/>
</svg>
