<svg xmlns="http://www.w3.org/2000/svg" xmlns:xlink="http://www.w3.org/1999/xlink" width="38.604" height="64.34" viewBox="0 0 38.604 64.34">
  <defs>
    <linearGradient id="linear-gradient" x1="0.046" y1="0.5" x2="0.951" y2="0.5" gradientUnits="objectBoundingBox">
      <stop offset="0" stop-color="#efbd58"/>
      <stop offset="0.489" stop-color="#e45881"/>
      <stop offset="1" stop-color="#6080ea"/>
    </linearGradient>
  </defs>
  <path id="Free_Meals_Snacks" data-name="Free Meals &amp; Snacks" d="M-9797.907,7466.3l-4.193-41.927h-2.252a1.073,1.073,0,0,1-1.072-1.072v-6.436a1.073,1.073,0,0,1,1.072-1.072h20.374V7404a1.073,1.073,0,0,1,1.072-1.072h4.29a1.071,1.071,0,0,1,1.071,1.072v11.795h9.651a1.073,1.073,0,0,1,1.072,1.072v6.436a1.073,1.073,0,0,1-1.072,1.072h-2.244l-4.188,41.927a1.071,1.071,0,0,1-1.067.966h-21.446A1.07,1.07,0,0,1-9797.907,7466.3Zm2.033-1.178h19.51l3.454-34.609a13.987,13.987,0,0,0-5.706-.993,13.906,13.906,0,0,0-7.045,1.609,16,16,0,0,1-7.969,1.821,18.623,18.623,0,0,1-5.544-.816Zm9.291-35.925a15.964,15.964,0,0,1,7.967-1.823,16.483,16.483,0,0,1,5.933.929l.395-3.93h-27.661l.54,5.418a16.525,16.525,0,0,0,5.78,1.015A13.956,13.956,0,0,0-9786.583,7429.2Zm-16.7-6.971h34.313v-4.29h-34.313Zm21.444-6.434h2.146v-10.723h-2.146Zm-6.434,47.183h-2.144a3.1,3.1,0,0,1-2.31-.909,3.117,3.117,0,0,1-.909-2.306v-2.146a3.118,3.118,0,0,1,.909-2.307,3.1,3.1,0,0,1,2.31-.909h2.144a3.1,3.1,0,0,1,2.309.909,3.106,3.106,0,0,1,.909,2.307v2.146a3.105,3.105,0,0,1-.909,2.306,3.11,3.11,0,0,1-2.2.912C-9788.194,7462.98-9788.231,7462.98-9788.268,7462.978Zm0-2.144a.986.986,0,0,0,.793-.281.972.972,0,0,0,.278-.791v-2.146a.969.969,0,0,0-.278-.791.98.98,0,0,0-.793-.281h-2.144a.972.972,0,0,0-.791.281.962.962,0,0,0-.281.791v2.146a.965.965,0,0,0,.281.791.978.978,0,0,0,.791.281Zm3.053-8.415a3.13,3.13,0,0,1-.909-2.309v-2.146a3.131,3.131,0,0,1,.909-2.309,3.119,3.119,0,0,1,2.309-.907h2.146a3.119,3.119,0,0,1,2.309.907,3.109,3.109,0,0,1,.906,2.309v2.146a3.108,3.108,0,0,1-.906,2.309,3.12,3.12,0,0,1-2.2.909H-9783A3.13,3.13,0,0,1-9785.215,7452.419Zm4.455-1.237a.97.97,0,0,0,.791-.281.968.968,0,0,0,.28-.791v-2.146a.966.966,0,0,0-.28-.791.969.969,0,0,0-.791-.281h-2.146a.968.968,0,0,0-.791.281.983.983,0,0,0-.281.791v2.146a.984.984,0,0,0,.281.791.969.969,0,0,0,.791.281Zm-13.941,1.072v-2.144h2.144v2.144Zm4.29-2.144v-2.146h2.144v2.146Zm0-5.362h-2.146a3.115,3.115,0,0,1-2.307-.909,3.1,3.1,0,0,1-.909-2.309v-2.144a3.1,3.1,0,0,1,.909-2.309,3.106,3.106,0,0,1,2.307-.909h2.146a3.112,3.112,0,0,1,2.309.909,3.1,3.1,0,0,1,.906,2.309v2.144a3.109,3.109,0,0,1-.906,2.309,3.123,3.123,0,0,1-2.2.912Zm0-2.146a.971.971,0,0,0,.79-.278.97.97,0,0,0,.281-.793v-2.144a.97.97,0,0,0-.281-.793.971.971,0,0,0-.79-.278h-2.146a.975.975,0,0,0-.791.278.989.989,0,0,0-.281.793v2.144a.989.989,0,0,0,.281.793.975.975,0,0,0,.791.278Zm12.866-1.072v-2.144h2.146v2.144Zm-3.215-3.216v-2.146h2.144v2.146Zm3.215-4.29v-2.146h2.146v2.146Z" transform="translate(9805.425 -7402.928)" fill="url(#linear-gradient)"/>
</svg>
