<svg xmlns="http://www.w3.org/2000/svg" xmlns:xlink="http://www.w3.org/1999/xlink" width="60.771" height="60.771" viewBox="0 0 60.771 60.771">
  <defs>
    <linearGradient id="linear-gradient" x1="0.046" y1="0.5" x2="0.951" y2="0.5" gradientUnits="objectBoundingBox">
      <stop offset="0" stop-color="#efbd58"/>
      <stop offset="0.489" stop-color="#e45881"/>
      <stop offset="1" stop-color="#6080ea"/>
    </linearGradient>
  </defs>
  <path id="Fun_Offsites" data-name="Fun Offsites" d="M-8652.55,7208.007a7.13,7.13,0,0,1,7.122-7.12,7.094,7.094,0,0,1,3.561.956v-24.1a1.781,1.781,0,0,1,1.295-1.714l25.162-7.122a1.787,1.787,0,0,1,1.559.294,1.777,1.777,0,0,1,.708,1.42v30.268a7.13,7.13,0,0,1-7.122,7.12,7.129,7.129,0,0,1-7.12-7.12,7.129,7.129,0,0,1,7.12-7.122,7.07,7.07,0,0,1,3.56.958v-14.628l-21.6,6.114v21.8a7.129,7.129,0,0,1-7.12,7.122A7.13,7.13,0,0,1-8652.55,7208.007Zm3.563,0a3.564,3.564,0,0,0,3.56,3.562,3.566,3.566,0,0,0,3.561-3.562,3.565,3.565,0,0,0-3.561-3.56A3.563,3.563,0,0,0-8648.987,7208.007Zm25.161-7.12a3.566,3.566,0,0,0,3.561,3.56,3.564,3.564,0,0,0,3.56-3.56,3.564,3.564,0,0,0-3.56-3.562A3.566,3.566,0,0,0-8623.826,7200.887Zm-14.481-21.8v3.42l21.6-6.112v-3.423Zm-35.606,11.115a7.13,7.13,0,0,1,7.122-7.12,7.045,7.045,0,0,1,3.56.958v-27.9a1.78,1.78,0,0,1,1.266-1.7,1.776,1.776,0,0,1,2,.716l2.054,3.079a35.761,35.761,0,0,0,8.847,8.766,8.946,8.946,0,0,1,3.643,7.183,8.913,8.913,0,0,1-8.9,8.9,1.78,1.78,0,0,1-1.779-1.781,1.782,1.782,0,0,1,1.779-1.781,5.348,5.348,0,0,0,5.344-5.341,5.372,5.372,0,0,0-2.188-4.311,42,42,0,0,1-8.494-7.984V7190.2a7.131,7.131,0,0,1-7.122,7.123A7.131,7.131,0,0,1-8673.914,7190.2Zm3.56,0a3.567,3.567,0,0,0,3.563,3.563,3.564,3.564,0,0,0,3.56-3.562,3.564,3.564,0,0,0-3.56-3.56A3.567,3.567,0,0,0-8670.354,7190.2Z" transform="translate(8673.914 -7154.357)" fill="url(#linear-gradient)"/>
</svg>
