<svg xmlns="http://www.w3.org/2000/svg" xmlns:xlink="http://www.w3.org/1999/xlink" width="73.911" height="54.184" viewBox="0 0 73.911 54.184">
  <defs>
    <linearGradient id="linear-gradient" x1="0.046" y1="0.5" x2="0.951" y2="0.5" gradientUnits="objectBoundingBox">
      <stop offset="0" stop-color="#efbd58"/>
      <stop offset="0.489" stop-color="#e45881"/>
      <stop offset="1" stop-color="#6080ea"/>
    </linearGradient>
  </defs>
  <path id="Inclusivity" d="M-6216.513,8419.933a9.778,9.778,0,0,0-9.03-10.365,8.026,8.026,0,0,0-3.884,1.032,24.816,24.816,0,0,1,1.751,9.191,2.461,2.461,0,0,1-2.462,2.462,2.462,2.462,0,0,1-2.463-2.462c0-9.964-7.143-18.065-15.928-18.065s-15.926,8.1-15.926,18.065a2.462,2.462,0,0,1-2.463,2.462,2.462,2.462,0,0,1-2.463-2.462,24.817,24.817,0,0,1,1.752-9.191,8.028,8.028,0,0,0-3.884-1.032,9.778,9.778,0,0,0-9.03,10.365,2.463,2.463,0,0,1-2.465,2.463,2.462,2.462,0,0,1-2.46-2.463,14.684,14.684,0,0,1,13.956-15.291,12.983,12.983,0,0,1,6.171,1.607,20.285,20.285,0,0,1,16.813-9.449,20.285,20.285,0,0,1,16.814,9.449,12.979,12.979,0,0,1,6.172-1.607,14.687,14.687,0,0,1,13.958,15.291,2.464,2.464,0,0,1-2.465,2.463A2.464,2.464,0,0,1-6216.513,8419.933Zm-18.716-29.59a9.358,9.358,0,0,1,9.358-9.358,9.357,9.357,0,0,1,9.358,9.358,9.357,9.357,0,0,1-9.358,9.358A9.358,9.358,0,0,1-6235.229,8390.343Zm4.926,0a4.432,4.432,0,0,0,4.433,4.433,4.434,4.434,0,0,0,4.435-4.433,4.436,4.436,0,0,0-4.435-4.435A4.434,4.434,0,0,0-6230.3,8390.343Zm-50.9,0a9.358,9.358,0,0,1,9.358-9.358,9.358,9.358,0,0,1,9.358,9.358,9.358,9.358,0,0,1-9.358,9.358A9.358,9.358,0,0,1-6281.2,8390.343Zm4.926,0a4.432,4.432,0,0,0,4.433,4.433,4.433,4.433,0,0,0,4.433-4.433,4.434,4.434,0,0,0-4.433-4.435A4.434,4.434,0,0,0-6276.276,8390.343Zm15.25-9.961a12.169,12.169,0,0,1,12.168-12.17,12.169,12.169,0,0,1,12.17,12.168,12.169,12.169,0,0,1-12.17,12.17A12.184,12.184,0,0,1-6261.025,8380.382Zm4.928,0a7.24,7.24,0,0,0,7.24,7.242,7.243,7.243,0,0,0,7.245-7.242,7.244,7.244,0,0,0-7.245-7.244A7.251,7.251,0,0,0-6256.1,8380.384Z" transform="translate(6285.483 -8368.212)" fill="url(#linear-gradient)"/>
</svg>
