<svg xmlns="http://www.w3.org/2000/svg" xmlns:xlink="http://www.w3.org/1999/xlink" width="64.541" height="64.541" viewBox="0 0 64.541 64.541">
  <defs>
    <linearGradient id="linear-gradient" x1="0.046" y1="0.5" x2="0.951" y2="0.5" gradientUnits="objectBoundingBox">
      <stop offset="0" stop-color="#efbd58"/>
      <stop offset="0.489" stop-color="#e45881"/>
      <stop offset="1" stop-color="#6080ea"/>
    </linearGradient>
  </defs>
  <path id="Intersection_40" data-name="Intersection 40" d="M-8554.348,8418.123a32.062,32.062,0,0,1-9.45-22.82,32.057,32.057,0,0,1,9.45-22.817,32.062,32.062,0,0,1,22.82-9.453,32.3,32.3,0,0,1,9.171,1.323,2.018,2.018,0,0,1,1.445,1.934,2.059,2.059,0,0,1-.084.574,2.019,2.019,0,0,1-2.508,1.361,28.26,28.26,0,0,0-8.024-1.159,28.271,28.271,0,0,0-28.238,28.237,28.271,28.271,0,0,0,28.238,28.238,28.269,28.269,0,0,0,28.235-28.238,28.272,28.272,0,0,0-1.157-8.026,2.02,2.02,0,0,1,1.361-2.508,2.018,2.018,0,0,1,2.506,1.363,32.231,32.231,0,0,1,1.325,9.171,32.06,32.06,0,0,1-9.453,22.82,32.066,32.066,0,0,1-22.817,9.45A32.072,32.072,0,0,1-8554.348,8418.123Zm.57-22.82a22.275,22.275,0,0,1,22.25-22.247,22.346,22.346,0,0,1,5.891.789,2.02,2.02,0,0,1,1.484,1.944,1.976,1.976,0,0,1-.073.533,2.015,2.015,0,0,1-2.478,1.413,18.292,18.292,0,0,0-4.824-.647,18.235,18.235,0,0,0-18.215,18.215,18.235,18.235,0,0,0,18.215,18.216,18.235,18.235,0,0,0,18.213-18.216,18.31,18.31,0,0,0-.646-4.826,2.016,2.016,0,0,1,1.413-2.478,2.013,2.013,0,0,1,2.476,1.413,22.257,22.257,0,0,1,.792,5.891,22.274,22.274,0,0,1-22.248,22.248A22.274,22.274,0,0,1-8553.777,8395.3Zm10.147,0a12.115,12.115,0,0,1,12.1-12.1,12.554,12.554,0,0,1,1.329.07,2.02,2.02,0,0,1,1.785,2.227,2.016,2.016,0,0,1-2.224,1.785,8.221,8.221,0,0,0-.891-.05,8.076,8.076,0,0,0-8.067,8.067,8.076,8.076,0,0,0,8.067,8.068,8.078,8.078,0,0,0,8.067-8.068,2.017,2.017,0,0,1,2.018-2.017,2.017,2.017,0,0,1,2.016,2.017,12.115,12.115,0,0,1-12.1,12.1A12.115,12.115,0,0,1-8543.63,8395.3Zm10.677,1.427a2.013,2.013,0,0,1,0-2.853l11.724-11.724,1-10.079a2,2,0,0,1,.58-1.226l7.225-7.227a2.022,2.022,0,0,1,2.125-.465,2.013,2.013,0,0,1,1.312,1.733l.575,7.294,7.291.572a2.02,2.02,0,0,1,1.735,1.312,2.016,2.016,0,0,1-.467,2.125l-7.227,7.227a2.025,2.025,0,0,1-1.226.581l-10.077,1-11.724,11.725a2.011,2.011,0,0,1-1.426.591A2.006,2.006,0,0,1-8532.953,8396.729Zm16.671-23.536-.76,7.624,7.625-.759,3.621-3.622-4.647-.366a2.016,2.016,0,0,1-1.852-1.854l-.366-4.646Z" transform="translate(8563.798 -8363.032)" fill="url(#linear-gradient)"/>
</svg>
