<svg xmlns="http://www.w3.org/2000/svg" xmlns:xlink="http://www.w3.org/1999/xlink" width="59.456" height="64.545" viewBox="0 0 59.456 64.545">
  <defs>
    <linearGradient id="linear-gradient" x1="0.046" y1="0.5" x2="0.951" y2="0.5" gradientUnits="objectBoundingBox">
      <stop offset="0" stop-color="#efbd58"/>
      <stop offset="0.489" stop-color="#e45881"/>
      <stop offset="1" stop-color="#6080ea"/>
    </linearGradient>
  </defs>
  <path id="Open-Door_Policy" data-name="Open-Door Policy" d="M-9787.968,7216.792l-10.274-5.709a32.8,32.8,0,0,1-16.858-28.651v-15.841a5.326,5.326,0,0,1,4.782-5.3,52.658,52.658,0,0,0,11.987-2.708,52.88,52.88,0,0,0,10.172-4.872,5.342,5.342,0,0,1,5.573,0,53.01,53.01,0,0,0,10.171,4.872,52.646,52.646,0,0,0,11.987,2.708,5.328,5.328,0,0,1,4.783,5.3v15.841a32.8,32.8,0,0,1-16.858,28.651l-10.28,5.711a5.344,5.344,0,0,1-2.59.675A5.34,5.34,0,0,1-9787.968,7216.792Zm2.213-59.192a57.353,57.353,0,0,1-11.051,5.29,57.109,57.109,0,0,1-13.032,2.945.755.755,0,0,0-.687.756v15.841a28.211,28.211,0,0,0,14.506,24.652l10.277,5.711a.754.754,0,0,0,.734,0l10.282-5.711a28.219,28.219,0,0,0,14.508-24.652v-15.841a.759.759,0,0,0-.692-.756,57.085,57.085,0,0,1-13.029-2.945,57.46,57.46,0,0,1-11.054-5.29.687.687,0,0,0-.38-.106s0,0,0,0A.708.708,0,0,0-9785.755,7157.6Zm-2.661,33.811-6.859-6.1a2.285,2.285,0,0,1-.189-3.228,2.283,2.283,0,0,1,3.225-.192l5.2,4.62,9.912-10.573a2.291,2.291,0,0,1,3.233-.1,2.286,2.286,0,0,1,.1,3.232l-11.433,12.2a2.281,2.281,0,0,1-1.663.722h-.016A2.274,2.274,0,0,1-9788.416,7191.411Z" transform="translate(9815.101 -7152.925)" fill="url(#linear-gradient)"/>
</svg>
