<svg xmlns="http://www.w3.org/2000/svg" xmlns:xlink="http://www.w3.org/1999/xlink" width="59.78" height="59.785" viewBox="0 0 59.78 59.785">
  <defs>
    <linearGradient id="linear-gradient" x1="0.046" y1="0.5" x2="0.951" y2="0.5" gradientUnits="objectBoundingBox">
      <stop offset="0" stop-color="#efbd58"/>
      <stop offset="0.489" stop-color="#e45881"/>
      <stop offset="1" stop-color="#6080ea"/>
    </linearGradient>
  </defs>
  <path id="Transparency" d="M-6901.318,5079.9l-12.15-12.15a4.792,4.792,0,0,1-.8-5.665l-4.818-4.819a20.114,20.114,0,0,1-13.33,5.013,20.349,20.349,0,0,1-14.485-6.009,20.361,20.361,0,0,1-6.011-14.424,20.138,20.138,0,0,1,5.929-14.4,20.139,20.139,0,0,1,14.337-5.929,20.359,20.359,0,0,1,14.487,6.008,20.4,20.4,0,0,1,.989,27.814l4.832,4.832a4.921,4.921,0,0,1,5.655.793l12.15,12.15a4.8,4.8,0,0,1,0,6.782,4.772,4.772,0,0,1-3.391,1.405A4.776,4.776,0,0,1-6901.318,5079.9Zm-10.228-17.011a2.084,2.084,0,0,0,0,2.94l12.148,12.148a2.137,2.137,0,0,0,2.94,0,2.079,2.079,0,0,0,0-2.938l-12.148-12.15a2.079,2.079,0,0,0-1.472-.61A2.065,2.065,0,0,0-6911.545,5062.893Zm-33.521-33.521a17.425,17.425,0,0,0-5.134,12.472,17.662,17.662,0,0,0,5.216,12.509,17.659,17.659,0,0,0,12.564,5.214,17.435,17.435,0,0,0,12.36-5.085c.019-.019.024-.043.043-.062s.044-.023.063-.041a17.689,17.689,0,0,0-.131-24.926,17.663,17.663,0,0,0-12.566-5.212A17.434,17.434,0,0,0-6945.066,5029.372Zm-2.22,13.235a1.363,1.363,0,0,1,0-1.407,17.38,17.38,0,0,1,14.751-8.808,17.38,17.38,0,0,1,14.75,8.808,1.348,1.348,0,0,1,0,1.407,17.383,17.383,0,0,1-14.75,8.807A17.383,17.383,0,0,1-6947.286,5042.607Zm2.774-.7a14.549,14.549,0,0,0,11.977,6.794,6.8,6.8,0,0,1-6.794-6.794,6.8,6.8,0,0,1,6.794-6.794A14.549,14.549,0,0,0-6944.512,5041.9Zm18.77,0a6.8,6.8,0,0,1-6.792,6.794,14.547,14.547,0,0,0,11.976-6.794,14.547,14.547,0,0,0-11.976-6.794A6.8,6.8,0,0,1-6925.743,5041.9Zm-10.869,0a4.081,4.081,0,0,0,4.076,4.076,4.082,4.082,0,0,0,4.076-4.076,4.083,4.083,0,0,0-4.076-4.077A4.082,4.082,0,0,0-6936.611,5041.9Z" transform="translate(6952.917 -5021.521)" fill="url(#linear-gradient)"/>
</svg>
