<svg xmlns="http://www.w3.org/2000/svg" xmlns:xlink="http://www.w3.org/1999/xlink" width="64.065" height="52.501" viewBox="0 0 64.065 52.501">
  <defs>
    <linearGradient id="linear-gradient" x1="0.046" y1="0.5" x2="0.951" y2="0.5" gradientUnits="objectBoundingBox">
      <stop offset="0" stop-color="#efbd58"/>
      <stop offset="0.489" stop-color="#e45881"/>
      <stop offset="1" stop-color="#6080ea"/>
    </linearGradient>
  </defs>
  <path id="Wellness_Benefit" data-name="Wellness Benefit" d="M-8647.137,7463.759a161.465,161.465,0,0,1-13.87-12.2,71.176,71.176,0,0,1-11.106-13.511h-1.753a1.255,1.255,0,0,1-1.257-1.256,1.255,1.255,0,0,1,1.257-1.254h.416a15.381,15.381,0,0,1-1.673-6.435,17.409,17.409,0,0,1,17.18-17.591,16.777,16.777,0,0,1,11.57,4.585,16.769,16.769,0,0,1,11.566-4.585,17.3,17.3,0,0,1,17.017,15.15,11.087,11.087,0,0,1,6.732,8.1v4.311a11.065,11.065,0,0,1-10.837,8.893,11.06,11.06,0,0,1-11.046-11.048,11.059,11.059,0,0,1,11.046-11.046,11.22,11.22,0,0,1,1.441.094,14.761,14.761,0,0,0-14.354-11.941,14.355,14.355,0,0,0-10.645,4.7,1.25,1.25,0,0,1-.922.4,1.246,1.246,0,0,1-.923-.4,14.357,14.357,0,0,0-10.647-4.7,14.9,14.9,0,0,0-14.669,15.078,14.283,14.283,0,0,0,1.962,6.435h11.777l3.09-10.765a1.253,1.253,0,0,1,1.193-.91,1.251,1.251,0,0,1,1.213.882l6.125,19.621,2.44-7.821a1.253,1.253,0,0,1,1.2-.882h6.528a1.255,1.255,0,0,1,1.254,1.256,1.255,1.255,0,0,1-1.254,1.256h-5.6l-3.364,10.78a1.251,1.251,0,0,1-1.2.879,1.251,1.251,0,0,1-1.2-.879l-6.074-19.461-2.2,7.645a1.252,1.252,0,0,1-1.206.91h-11.237a74.506,74.506,0,0,0,9.911,11.712,160.563,160.563,0,0,0,12.879,11.4c1.657-1.311,5.8-4.668,10.295-8.9a1.253,1.253,0,0,1,1.774.052,1.25,1.25,0,0,1-.052,1.772c-5.888,5.553-11.2,9.628-11.255,9.668a1.26,1.26,0,0,1-.763.259A1.26,1.26,0,0,1-8647.137,7463.759Zm16.707-26.836a8.547,8.547,0,0,0,8.535,8.538,8.548,8.548,0,0,0,8.538-8.538,8.547,8.547,0,0,0-8.538-8.536A8.546,8.546,0,0,0-8630.43,7436.922Zm-2.171,13.737a1.258,1.258,0,0,1-.018-1.777l.035-.037a1.258,1.258,0,0,1,1.776-.018,1.258,1.258,0,0,1,.018,1.777l-.037.037a1.255,1.255,0,0,1-.895.375A1.254,1.254,0,0,1-8632.6,7450.66Zm9.452-9.145v-3.336h-3.336a1.256,1.256,0,0,1-1.257-1.254,1.256,1.256,0,0,1,1.257-1.256h3.336v-3.335a1.255,1.255,0,0,1,1.254-1.256,1.256,1.256,0,0,1,1.257,1.256v3.335h3.335a1.257,1.257,0,0,1,1.257,1.256,1.257,1.257,0,0,1-1.257,1.254h-3.335v3.336a1.256,1.256,0,0,1-1.257,1.256A1.255,1.255,0,0,1-8623.148,7441.515Z" transform="translate(8675.123 -7411.517)" fill="url(#linear-gradient)"/>
</svg>
