<svg xmlns="http://www.w3.org/2000/svg" xmlns:xlink="http://www.w3.org/1999/xlink" width="64" height="55.467" viewBox="0 0 64 55.467">
  <defs>
    <linearGradient id="linear-gradient" x1="0.046" y1="0.5" x2="0.951" y2="0.5" gradientUnits="objectBoundingBox">
      <stop offset="0" stop-color="#efbd58"/>
      <stop offset="0.489" stop-color="#e45881"/>
      <stop offset="1" stop-color="#6080ea"/>
    </linearGradient>
  </defs>
  <path id="Cameras_With_Video_Analytics" data-name="Cameras With Video Analytics" d="M7.791,55.467A7.8,7.8,0,0,1,0,47.685V16.324A7.8,7.8,0,0,1,7.791,8.533h9.16l1.069-3.2A7.777,7.777,0,0,1,25.41,0H38.59a7.776,7.776,0,0,1,7.392,5.333l1.067,3.2H56.21A7.8,7.8,0,0,1,64,16.316v31.36a7.8,7.8,0,0,1-7.782,7.791ZM4.267,16.316v31.36A3.528,3.528,0,0,0,7.791,51.2H56.21a3.528,3.528,0,0,0,3.523-3.524V16.324A3.529,3.529,0,0,0,56.21,12.8H45.51a2.133,2.133,0,0,1-2.022-1.459L41.933,6.677a3.518,3.518,0,0,0-3.343-2.41H25.41a3.519,3.519,0,0,0-3.343,2.408l-1.555,4.666A2.133,2.133,0,0,1,18.49,12.8H7.791A3.529,3.529,0,0,0,4.267,16.316ZM16,30.933a16,16,0,1,1,16,16A16,16,0,0,1,16,30.933Zm4.267,0A11.733,11.733,0,1,0,32,19.2,11.732,11.732,0,0,0,20.267,30.933ZM51,19.233a2.292,2.292,0,0,1,2-2.5,2.292,2.292,0,0,1,2,2.5,2.293,2.293,0,0,1-2,2.5A2.293,2.293,0,0,1,51,19.233Z" transform="translate(0 0)" fill="url(#linear-gradient)"/>
</svg>
