<svg xmlns="http://www.w3.org/2000/svg" xmlns:xlink="http://www.w3.org/1999/xlink" width="64.355" height="60.773" viewBox="0 0 64.355 60.773">
  <defs>
    <clipPath id="clip-path">
      <path id="users" d="M24.462,28.741A12.986,12.986,0,0,1,11.751,15.5,12.986,12.986,0,0,1,24.462,2.25,12.986,12.986,0,0,1,37.172,15.5,13,13,0,0,1,24.462,28.741Zm0-21.816A8.4,8.4,0,0,0,16.237,15.5a8.4,8.4,0,0,0,8.225,8.571A8.4,8.4,0,0,0,32.686,15.5a8.409,8.409,0,0,0-8.225-8.571ZM36.4,63.023H12.471c-7.238,0-11.224-4.129-11.224-11.628,0-8.3,4.5-17.98,17.2-17.98H30.407c12.693,0,17.2,9.683,17.2,17.98C47.613,58.894,43.627,63.023,36.4,63.023ZM18.453,38.091a11.571,11.571,0,0,0-9.3,3.6A12.638,12.638,0,0,0,5.742,51.4c0,4.874,2.016,6.953,6.738,6.953H36.4c4.722,0,6.738-2.079,6.738-6.953a12.638,12.638,0,0,0-3.412-9.713,11.57,11.57,0,0,0-9.308-3.592Zm28.592-7.978a10,10,0,0,1-7.178-3.036,2.41,2.41,0,0,1,.094-3.148,2.178,2.178,0,0,1,3.016-.193,5.631,5.631,0,0,0,4.056,1.7,5.71,5.71,0,0,0,4.185-1.779A6.209,6.209,0,0,0,52.925,19.3a6.029,6.029,0,0,0-5.892-6.14,5.2,5.2,0,0,0-2.476.583,2.2,2.2,0,0,1-3.018-1.022,2.386,2.386,0,0,1,.981-3.145,9.486,9.486,0,0,1,4.525-1.091A10.6,10.6,0,0,1,57.423,19.3,10.6,10.6,0,0,1,47.045,30.112ZM56.316,56.79H54.283a2.339,2.339,0,0,1,0-4.675h2.034c3.424,0,4.755-1.371,4.755-4.893a9.33,9.33,0,0,0-2.521-7.167,8.542,8.542,0,0,0-6.87-2.65H47.165a2.339,2.339,0,0,1,0-4.675h4.516a12.762,12.762,0,0,1,10.094,3.965,13.928,13.928,0,0,1,3.783,10.527,8.944,8.944,0,0,1-2.428,7.084A8.175,8.175,0,0,1,56.316,56.79Z" transform="translate(-1.247 -2.25)"/>
    </clipPath>
    <linearGradient id="linear-gradient" x1="0.046" y1="0.5" x2="0.951" y2="0.5" gradientUnits="objectBoundingBox">
      <stop offset="0" stop-color="#efbd58"/>
      <stop offset="0.489" stop-color="#e45881"/>
      <stop offset="1" stop-color="#6080ea"/>
    </linearGradient>
  </defs>
  <g id="Clients_Served" data-name="Clients Served" clip-path="url(#clip-path)">
    <rect id="Rectangle_49" data-name="Rectangle 49" width="70.606" height="64.944" rx="4" transform="translate(64.944 -4.897) rotate(90)" fill="url(#linear-gradient)"/>
  </g>
</svg>
