<svg xmlns="http://www.w3.org/2000/svg" width="80.21" height="80.202" viewBox="0 0 80.21 80.202">
  <g id="Consistent_Internet" data-name="Consistent Internet" transform="translate(0)">
    <g id="Group_909" data-name="Group 909" transform="translate(0 0)">
      <path id="Path_1686" data-name="Path 1686" d="M40.058.022a40.164,40.164,0,0,0-4.3.231,37.856,37.856,0,0,0-3.881.62q-.371.078-.741.163A40.107,40.107,0,0,0,11.348,12.114q-.752.771-1.472,1.587a40.151,40.151,0,0,0,58.9,54.53q.754-.771,1.472-1.587A40.149,40.149,0,0,0,40.058.022Zm-26.926,14.1c.211-.219.431-.43.646-.642.249-.245.5-.491.751-.728.224-.209.454-.41.683-.613.258-.229.515-.458.78-.679.233-.2.472-.385.711-.575.268-.214.535-.428.811-.634.244-.183.491-.361.74-.535.277-.2.555-.4.838-.586.253-.171.509-.337.766-.5.286-.183.574-.364.865-.535q.392-.234.79-.46.444-.253.893-.494.4-.214.8-.419c.305-.154.613-.3.922-.448.268-.127.546-.254.822-.375.315-.134.633-.268.952-.4.277-.114.553-.225.832-.332.324-.123.652-.238.98-.353.28-.1.559-.2.843-.288.333-.107.669-.206,1.006-.3.282-.082.562-.166.846-.242.108-.028.217-.051.325-.079a33.208,33.208,0,0,0-8.553,13.89,44.953,44.953,0,0,1-9.17-3.529C13.055,14.209,13.093,14.162,13.132,14.122Zm-1.925,2.155a46.5,46.5,0,0,0,10.157,4.042,69.45,69.45,0,0,0-2.7,18.516H2.615A37.393,37.393,0,0,1,11.207,16.276Zm0,47.793A37.4,37.4,0,0,1,2.615,41.511H18.662a69.443,69.443,0,0,0,2.7,18.516A46.532,46.532,0,0,0,11.207,64.069ZM30.4,76.377c-.27-.068-.55-.157-.828-.238-.339-.1-.679-.2-1.013-.306-.282-.091-.561-.189-.839-.286-.329-.114-.658-.23-.984-.355-.278-.106-.553-.217-.828-.329l-.957-.4q-.41-.181-.815-.372c-.312-.147-.622-.3-.937-.452-.268-.134-.535-.268-.8-.414-.3-.162-.6-.328-.9-.5-.268-.149-.522-.3-.78-.456-.294-.177-.584-.359-.873-.545-.254-.162-.509-.327-.759-.5-.285-.193-.567-.393-.847-.594-.245-.175-.49-.351-.731-.535-.277-.209-.549-.424-.819-.641-.237-.189-.472-.376-.7-.57-.268-.222-.526-.454-.786-.684-.228-.2-.456-.4-.679-.608-.256-.238-.5-.486-.752-.731-.215-.213-.435-.423-.646-.641-.039-.041-.076-.084-.115-.124a44.92,44.92,0,0,1,9.17-3.531,33.217,33.217,0,0,0,8.553,13.89C30.62,76.429,30.51,76.406,30.4,76.377Zm8.318,1.164c-5.727-.814-10.747-6.791-13.906-15.617A68.014,68.014,0,0,1,38.72,60.287Zm0-19.931a70.481,70.481,0,0,0-14.746,1.759,66.954,66.954,0,0,1-2.635-17.858H38.72v16.1Zm0-18.776H21.338a66.94,66.94,0,0,1,2.635-17.858A70.5,70.5,0,0,0,38.72,22.735Zm0-18.776a67.943,67.943,0,0,1-13.906-1.637C27.973,9.6,32.993,3.618,38.72,2.8Zm30.19-3.782A37.4,37.4,0,0,1,77.5,38.834H61.455a69.443,69.443,0,0,0-2.7-18.516A46.548,46.548,0,0,0,68.909,16.276ZM49.7,3.967c.281.07.561.158.839.24.339.1.679.2,1.013.306.282.091.561.189.839.286.329.114.658.23.984.355.278.106.553.217.828.329l.957.4q.41.181.815.372c.312.147.622.3.937.452.268.134.535.268.8.414.3.162.6.328.9.5.268.149.522.3.78.456.294.177.584.359.873.545.254.162.509.327.759.5.285.193.566.392.846.593.246.175.491.352.733.535.276.207.546.423.818.64.236.187.472.375.7.57.268.222.526.454.786.684.228.2.456.4.679.608.256.238.5.486.752.731.215.213.435.423.646.641.039.041.076.084.115.124a44.92,44.92,0,0,1-9.17,3.531A33.215,33.215,0,0,0,49.377,3.887C49.486,3.915,49.6,3.938,49.7,3.967ZM41.4,2.8C47.123,3.618,52.144,9.6,55.3,18.422A68.014,68.014,0,0,1,41.4,20.059V2.8Zm0,19.931a70.481,70.481,0,0,0,14.746-1.759,66.954,66.954,0,0,1,2.635,17.858H41.4Zm0,18.776H58.778a66.94,66.94,0,0,1-2.635,17.858h0A70.5,70.5,0,0,0,41.4,57.61Zm0,36.03V60.287A67.943,67.943,0,0,1,55.3,61.924C52.144,70.75,47.123,76.728,41.4,77.541ZM66.985,66.224c-.211.218-.43.428-.645.641-.249.245-.5.493-.754.731-.222.207-.451.4-.679.609-.26.23-.518.46-.783.683-.234.2-.472.384-.711.574-.268.214-.535.428-.811.634-.244.183-.491.361-.74.535-.277.2-.555.4-.838.586-.253.171-.509.337-.766.5q-.43.277-.866.535c-.268.157-.523.309-.787.46q-.444.253-.894.494-.4.214-.8.419c-.305.154-.613.3-.922.448-.268.127-.546.254-.822.375-.315.134-.633.268-.952.4-.277.112-.553.225-.831.331-.327.124-.654.241-.984.355-.278.1-.557.2-.839.286-.335.108-.669.207-1.01.305-.28.083-.561.166-.843.242-.108.028-.217.051-.325.079a33.208,33.208,0,0,0,8.553-13.89,44.952,44.952,0,0,1,9.17,3.529C67.061,66.137,67.024,66.184,66.985,66.224Zm1.925-2.155a46.5,46.5,0,0,0-10.157-4.042,69.45,69.45,0,0,0,2.7-18.516H77.5A37.393,37.393,0,0,1,68.909,64.069Z" transform="translate(0 -0.022)" fill="#111561"/>
    </g>
  </g>
</svg>
