<svg xmlns="http://www.w3.org/2000/svg" width="70.683" height="31.178" viewBox="0 0 70.683 31.178">
  <g id="DVR_NVR" data-name="DVR / NVR" transform="translate(0)">
    <g id="_x30_1_DVR_1_" transform="translate(0 0)">
      <path id="Path_1682" data-name="Path 1682" d="M64.829,143.1H5.868A5.881,5.881,0,0,0,0,148.968v15.437a5.881,5.881,0,0,0,5.868,5.868H7.815v2.568a1.436,1.436,0,1,0,2.872,0v-2.568H60v2.568a1.436,1.436,0,1,0,2.872,0v-2.568h1.947a5.881,5.881,0,0,0,5.868-5.868V148.968A5.861,5.861,0,0,0,64.829,143.1Zm2.983,21.306a2.988,2.988,0,0,1-2.983,2.983H5.868a2.988,2.988,0,0,1-2.983-2.983V148.968a2.988,2.988,0,0,1,2.983-2.983h58.96a2.988,2.988,0,0,1,2.983,2.983Z" transform="translate(0 -143.1)" fill="#111561"/>
      <path id="Path_1683" data-name="Path 1683" d="M83.5,204.2H54.836a1.435,1.435,0,0,0-1.436,1.436v7.4a1.435,1.435,0,0,0,1.436,1.436H83.5a1.435,1.435,0,0,0,1.436-1.436v-7.4A1.418,1.418,0,0,0,83.5,204.2Zm-1.436,7.4H56.286v-4.515h25.78Z" transform="translate(-46.027 -195.763)" fill="#111561"/>
      <path id="Path_1684" data-name="Path 1684" d="M390.355,199.1a5.855,5.855,0,1,0,5.855,5.855A5.858,5.858,0,0,0,390.355,199.1Zm0,8.81a2.969,2.969,0,1,1,2.969-2.969A2.973,2.973,0,0,1,390.355,207.91Z" transform="translate(-331.408 -191.368)" fill="#111561"/>
      <path id="Path_1685" data-name="Path 1685" d="M316.77,231h-2.334a1.436,1.436,0,0,0,0,2.872h2.334a1.436,1.436,0,0,0,0-2.872Z" transform="translate(-269.781 -218.863)" fill="#111561"/>
    </g>
  </g>
</svg>
