<svg xmlns="http://www.w3.org/2000/svg" xmlns:xlink="http://www.w3.org/1999/xlink" width="210.737" height="47.172" viewBox="0 0 210.737 47.172">
  <defs>
    <linearGradient id="linear-gradient" x1="1.033" y1="-0.044" x2="-0.054" gradientUnits="objectBoundingBox">
      <stop offset="0" stop-color="#fff"/>
      <stop offset="0.471" stop-color="#011246"/>
      <stop offset="1" stop-color="#fff"/>
    </linearGradient>
    <linearGradient id="linear-gradient-2" x1="1.033" y1="1.044" x2="-0.054" y2="1" gradientUnits="objectBoundingBox">
      <stop offset="0" stop-color="#fff"/>
      <stop offset="0.471" stop-color="#f9390e"/>
      <stop offset="1" stop-color="#fff"/>
    </linearGradient>
  </defs>
  <g id="Group_1076" data-name="Group 1076" transform="translate(-2374.993 -3617.034)">
    <path id="Path_1679" data-name="Path 1679" d="M6880.854,3532.07a143.14,143.14,0,0,1-43.331-6.953,177.3,177.3,0,0,1-26.943-11.129,198.569,198.569,0,0,1-20.8-12.289,156.154,156.154,0,0,1-18.221-14.092,1.568,1.568,0,1,1,2.151-2.282,156.591,156.591,0,0,0,17.917,13.837,186.2,186.2,0,0,0,46.947,23,141.139,141.139,0,0,0,42.645,6.892c35.022,0,67.819-14.611,97.925-43.713a1.568,1.568,0,0,1,2.18,2.255,191.687,191.687,0,0,1-19.382,16.463,158.77,158.77,0,0,1-19.318,12.24,138.922,138.922,0,0,1-19.087,8.441,129.221,129.221,0,0,1-18.687,5.069A127.489,127.489,0,0,1,6880.854,3532.07Z" transform="translate(-4396.073 132.136)" fill="url(#linear-gradient)"/>
    <path id="Path_1679-2" data-name="Path 1679" d="M6880.854,3484.9a143.141,143.141,0,0,0-43.331,6.953,177.3,177.3,0,0,0-26.943,11.129,198.526,198.526,0,0,0-20.8,12.289,156.171,156.171,0,0,0-18.221,14.091,1.568,1.568,0,0,0,2.151,2.283,156.573,156.573,0,0,1,17.917-13.837,186.208,186.208,0,0,1,46.947-23,141.132,141.132,0,0,1,42.645-6.892c35.022,0,67.819,14.611,97.925,43.712a1.568,1.568,0,1,0,2.18-2.255,191.719,191.719,0,0,0-19.382-16.463,158.862,158.862,0,0,0-19.318-12.24,138.948,138.948,0,0,0-19.087-8.441,129.158,129.158,0,0,0-18.687-5.069A127.469,127.469,0,0,0,6880.854,3484.9Z" transform="translate(-4396.073 132.136)" fill="url(#linear-gradient-2)"/>
  </g>
</svg>
