<svg xmlns="http://www.w3.org/2000/svg" width="66.839" height="64.611" viewBox="0 0 66.839 64.611">
  <g id="Instant_Insights" data-name="Instant Insights" transform="translate(0)">
    <g id="Group_911" data-name="Group 911" transform="translate(0 0)">
      <g id="Group_910" data-name="Group 910">
        <path id="Path_1688" data-name="Path 1688" d="M62.381,8.533H4.457A4.462,4.462,0,0,0,0,12.99V49.75a1.114,1.114,0,0,0,1.114,1.114H65.724a1.114,1.114,0,0,0,1.114-1.114V12.99A4.462,4.462,0,0,0,62.381,8.533Zm2.229,40.1H2.228V12.99a2.231,2.231,0,0,1,2.229-2.229H62.381a2.231,2.231,0,0,1,2.229,2.229Z" transform="translate(0 -8.533)" fill="#111561"/>
      </g>
    </g>
    <g id="Group_913" data-name="Group 913" transform="translate(0 40.103)">
      <g id="Group_912" data-name="Group 912">
        <path id="Path_1689" data-name="Path 1689" d="M65.725,315.733H1.114A1.114,1.114,0,0,0,0,316.847v5.569a4.462,4.462,0,0,0,4.457,4.457H62.381a4.462,4.462,0,0,0,4.457-4.457v-5.569A1.114,1.114,0,0,0,65.725,315.733Zm-1.114,6.683a2.231,2.231,0,0,1-2.229,2.229H4.457a2.231,2.231,0,0,1-2.229-2.229v-4.455H64.611v4.455Z" transform="translate(0 -315.733)" fill="#111561"/>
      </g>
    </g>
    <g id="Group_915" data-name="Group 915" transform="translate(28.964 44.559)">
      <g id="Group_914" data-name="Group 914">
        <path id="Path_1690" data-name="Path 1690" d="M229.665,349.867h-6.684a1.114,1.114,0,1,0,0,2.228h6.684a1.114,1.114,0,1,0,0-2.228Z" transform="translate(-221.867 -349.867)" fill="#111561"/>
      </g>
    </g>
    <g id="Group_917" data-name="Group 917" transform="translate(4.456 4.456)">
      <g id="Group_916" data-name="Group 916">
        <path id="Path_1691" data-name="Path 1691" d="M90.947,42.667h-55.7a1.114,1.114,0,0,0-1.114,1.114V79.428a1.114,1.114,0,0,0,1.114,1.114h55.7a1.114,1.114,0,0,0,1.114-1.114V43.781A1.114,1.114,0,0,0,90.947,42.667ZM89.833,78.314H36.362V44.895H89.833V78.314Z" transform="translate(-34.134 -42.667)" fill="#111561"/>
      </g>
    </g>
    <g id="Group_919" data-name="Group 919" transform="translate(15.596 57.927)">
      <g id="Group_918" data-name="Group 918">
        <path id="Path_1692" data-name="Path 1692" d="M151.772,452.267H122.809a3.342,3.342,0,1,0,0,6.684h28.963a3.342,3.342,0,1,0,0-6.684Zm0,4.456H122.809a1.114,1.114,0,1,1,0-2.228h28.963a1.114,1.114,0,1,1,0,2.228Z" transform="translate(-119.467 -452.267)" fill="#111561"/>
      </g>
    </g>
    <g id="Group_921" data-name="Group 921" transform="translate(20.052 49.015)">
      <g id="Group_920" data-name="Group 920">
        <path id="Path_1693" data-name="Path 1693" d="M179.222,392.913c-3.7,0-5.57-2.623-5.57-7.8A1.114,1.114,0,0,0,172.539,384H161.4a1.114,1.114,0,0,0-1.114,1.114c0,5.174-1.874,7.8-5.57,7.8a1.114,1.114,0,1,0,0,2.228h24.507a1.114,1.114,0,1,0,0-2.228Zm-19.081,0a10.673,10.673,0,0,0,2.342-6.684h8.973a10.66,10.66,0,0,0,2.342,6.684Z" transform="translate(-153.601 -384.001)" fill="#111561"/>
      </g>
    </g>
    <g id="Group_923" data-name="Group 923" transform="translate(38.997 23.393)">
      <g id="Group_922" data-name="Group 922">
        <path id="Path_1694" data-name="Path 1694" d="M312.957,197.16l-2.689-2.689,1.5-1.5a1.114,1.114,0,0,0-.467-1.855l-11.14-3.342a1.114,1.114,0,0,0-1.387,1.387l3.342,11.14a1.113,1.113,0,0,0,1.855.468l1.575-1.576,2.689,2.69a1.113,1.113,0,0,0,1.575,0l3.15-3.151A1.113,1.113,0,0,0,312.957,197.16Zm-3.938,2.364-2.448-2.45a1.456,1.456,0,0,0-2.056,0l-.8.8-2.211-7.371,7.371,2.211-.862.862a1.263,1.263,0,0,0,0,1.783l2.584,2.584Z" transform="translate(-298.723 -187.731)" fill="#111561"/>
      </g>
    </g>
    <g id="Group_925" data-name="Group 925" transform="translate(14.482 8.912)">
      <g id="Group_924" data-name="Group 924">
        <path id="Path_1695" data-name="Path 1695" d="M143.239,76.8H112.048a1.114,1.114,0,0,0-1.114,1.114v5.57a1.114,1.114,0,0,0,1.114,1.114h31.191a1.114,1.114,0,0,0,1.114-1.114v-5.57A1.114,1.114,0,0,0,143.239,76.8Zm-1.114,5.57H113.162V79.028h28.963Z" transform="translate(-110.934 -76.8)" fill="#111561"/>
      </g>
    </g>
    <g id="Group_927" data-name="Group 927" transform="translate(18.938 21.166)">
      <g id="Group_926" data-name="Group 926">
        <path id="Path_1696" data-name="Path 1696" d="M155.093,170.667h-8.912a1.114,1.114,0,0,0-1.114,1.114v4.456a1.114,1.114,0,0,0,1.114,1.114h8.912a1.114,1.114,0,0,0,1.114-1.114v-4.456A1.114,1.114,0,0,0,155.093,170.667Zm-1.114,4.456h-6.684v-2.228h6.684Z" transform="translate(-145.067 -170.667)" fill="#111561"/>
      </g>
    </g>
    <g id="Group_929" data-name="Group 929" transform="translate(14.482 8.912)">
      <g id="Group_928" data-name="Group 928">
        <path id="Path_1697" data-name="Path 1697" d="M143.239,76.8H112.048a1.114,1.114,0,0,0-1.114,1.114V99.079a1.114,1.114,0,0,0,1.114,1.114h26.519a1.115,1.115,0,0,0,1.067-1.435l-1.41-4.7,4.7,1.409a1.114,1.114,0,0,0,1.434-1.067V77.914A1.115,1.115,0,0,0,143.239,76.8Zm-1.114,16.1-5.244-1.573a1.115,1.115,0,0,0-1.387,1.388l1.575,5.249H113.162V79.028h28.963Z" transform="translate(-110.934 -76.8)" fill="#111561"/>
      </g>
    </g>
  </g>
</svg>
