<svg xmlns="http://www.w3.org/2000/svg" xmlns:xlink="http://www.w3.org/1999/xlink" width="58.102" height="66.106" viewBox="0 0 58.102 66.106">
  <defs>
    <linearGradient id="linear-gradient" x1="0.046" y1="0.5" x2="0.951" y2="0.5" gradientUnits="objectBoundingBox">
      <stop offset="0" stop-color="#efbd58"/>
      <stop offset="0.489" stop-color="#e45881"/>
      <stop offset="1" stop-color="#6080ea"/>
    </linearGradient>
  </defs>
  <path id="Real_Time_Alerts_Are_Processed.." data-name="Real Time Alerts Are Processed.." d="M-4048.017,60.609h-17.625a1.936,1.936,0,0,1-1.781-1.177,1.934,1.934,0,0,1,.383-2.1,30.4,30.4,0,0,0,8.5-21.143V30.01a20.049,20.049,0,0,1,14.2-19.153V8.06a5.817,5.817,0,0,1,5.81-5.81,5.817,5.817,0,0,1,5.809,5.81v2.8a20.049,20.049,0,0,1,14.2,19.153v6.179a30.41,30.41,0,0,0,8.5,21.143,1.937,1.937,0,0,1,.384,2.1,1.94,1.94,0,0,1-1.782,1.177h-17.625a9.7,9.7,0,0,1-9.488,7.746A9.7,9.7,0,0,1-4048.017,60.609Zm9.49,3.873a5.818,5.818,0,0,0,5.476-3.873H-4044A5.819,5.819,0,0,0-4038.528,64.483Zm-16.14-34.473v6.179a34.243,34.243,0,0,1-6.8,20.547h45.879a34.243,34.243,0,0,1-6.8-20.547V30.01a16.158,16.158,0,0,0-16.139-16.141A16.158,16.158,0,0,0-4054.667,30.01Zm18.076-19.919V8.06a1.939,1.939,0,0,0-1.936-1.936,1.938,1.938,0,0,0-1.937,1.936v2.031c.637-.061,1.283-.094,1.937-.094S-4037.229,10.03-4036.592,10.091Zm23.24,19.919a25.006,25.006,0,0,0-7.373-17.8,1.937,1.937,0,0,1,0-2.74,1.936,1.936,0,0,1,2.738,0,28.861,28.861,0,0,1,8.509,20.543,1.936,1.936,0,0,1-1.936,1.936A1.937,1.937,0,0,1-4013.351,30.01Zm-54.228,0a28.861,28.861,0,0,1,8.509-20.542,1.937,1.937,0,0,1,2.74,0,1.937,1.937,0,0,1,0,2.739,25.01,25.01,0,0,0-7.375,17.8,1.937,1.937,0,0,1-1.937,1.936A1.937,1.937,0,0,1-4067.579,30.01Z" transform="translate(4067.579 -2.25)" fill="url(#linear-gradient)"/>
</svg>
