<svg xmlns="http://www.w3.org/2000/svg" xmlns:xlink="http://www.w3.org/1999/xlink" width="50.136" height="62.355" viewBox="0 0 50.136 62.355">
  <defs>
    <linearGradient id="linear-gradient" x1="0.046" y1="0.5" x2="0.951" y2="0.5" gradientUnits="objectBoundingBox">
      <stop offset="0" stop-color="#efbd58"/>
      <stop offset="0.489" stop-color="#e45881"/>
      <stop offset="1" stop-color="#6080ea"/>
    </linearGradient>
  </defs>
  <path id="Research_Papers_Published" data-name="Research Papers Published" d="M-4017.529,66.48a4.05,4.05,0,0,1-2.877-1.192l-5.315-5.3A12.246,12.246,0,0,1-4041,56.012a12.249,12.249,0,0,1,1.338-15.736,12.248,12.248,0,0,1,15.737-1.335,12.248,12.248,0,0,1,3.973,15.284l5.3,5.315.005,0a4.067,4.067,0,0,1,0,5.753,4.049,4.049,0,0,1-2.873,1.19Zm-5.831-7.968,4.865,4.855a1.36,1.36,0,0,0,1.912,0v.008a1.348,1.348,0,0,0,.4-.956,1.345,1.345,0,0,0-.4-.954l-4.855-4.872A11.509,11.509,0,0,1-4023.36,58.512ZM-4037.71,42.24a9.51,9.51,0,0,0,0,13.451,9.522,9.522,0,0,0,13.451,0,9.512,9.512,0,0,0,0-13.451,9.484,9.484,0,0,0-6.726-2.785A9.482,9.482,0,0,0-4037.71,42.24ZM-4056.8,63.91a6.8,6.8,0,0,1-6.794-6.793V10.92a6.8,6.8,0,0,1,6.794-6.794h23.614a6.745,6.745,0,0,1,4.816,2l8.994,9.037a6.764,6.764,0,0,1,1.979,4.793V38.095a1.359,1.359,0,0,1-1.359,1.359,1.36,1.36,0,0,1-1.359-1.359V19.957a4.162,4.162,0,0,0-.1-.885h-8.048A4.077,4.077,0,0,1-4032.344,15V6.934a4.037,4.037,0,0,0-.843-.092H-4056.8a4.077,4.077,0,0,0-4.076,4.078v46.2a4.077,4.077,0,0,0,4.076,4.077h17.664a1.359,1.359,0,0,1,1.359,1.359,1.358,1.358,0,0,1-1.359,1.358ZM-4029.627,15a1.358,1.358,0,0,0,1.359,1.359h6.241l-7.6-7.636Zm-8.152,33.969a1.357,1.357,0,0,1,1.358-1.359,1.358,1.358,0,0,1,1.359,1.359,4.077,4.077,0,0,0,4.076,4.077,1.359,1.359,0,0,1,1.359,1.358,1.359,1.359,0,0,1-1.359,1.359A6.8,6.8,0,0,1-4037.779,48.964Zm-16.3,5.434a1.359,1.359,0,0,1-1.36-1.358,1.36,1.36,0,0,1,1.36-1.36h6.793a1.36,1.36,0,0,1,1.359,1.36,1.359,1.359,0,0,1-1.359,1.358Zm0-6.793a1.36,1.36,0,0,1-1.36-1.359,1.359,1.359,0,0,1,1.36-1.359h5.434a1.358,1.358,0,0,1,1.359,1.359,1.359,1.359,0,0,1-1.359,1.359Zm0-6.794a1.36,1.36,0,0,1-1.36-1.358,1.359,1.359,0,0,1,1.36-1.359h8.152a1.359,1.359,0,0,1,1.359,1.359,1.359,1.359,0,0,1-1.359,1.358Zm0-6.793a1.36,1.36,0,0,1-1.36-1.359,1.359,1.359,0,0,1,1.36-1.359h27.174a1.358,1.358,0,0,1,1.359,1.359,1.359,1.359,0,0,1-1.359,1.359Zm4.075-6.794a1.358,1.358,0,0,1-1.359-1.359,1.358,1.358,0,0,1,1.359-1.358h23.1a1.358,1.358,0,0,1,1.359,1.358,1.358,1.358,0,0,1-1.359,1.359Zm-4.075-8.152a1.36,1.36,0,0,1-1.36-1.359,1.359,1.359,0,0,1,1.36-1.359h14.946a1.359,1.359,0,0,1,1.359,1.359,1.359,1.359,0,0,1-1.359,1.359Z" transform="translate(4063.596 -4.126)" fill="url(#linear-gradient)"/>
</svg>
