<svg id="Suitably_Positioned" data-name="Suitably Positioned" xmlns="http://www.w3.org/2000/svg" width="70.744" height="60.174" viewBox="0 0 70.744 60.174">
  <path id="Path_1679" data-name="Path 1679" d="M70.262,35.175,27.151,10.286a5.4,5.4,0,0,0-7.359,1.971l-4.963,8.6-3.3,5.722A5.4,5.4,0,0,0,13.5,33.938l14.781,8.533-2.3,3.92A3.468,3.468,0,0,1,23,48.1H14.37V41.521a.967.967,0,0,0-.967-.967H8.152V39.305a4.288,4.288,0,0,0-4.283-4.283H.967A.967.967,0,0,0,0,35.989V68.774a.967.967,0,0,0,.967.967h2.9a4.288,4.288,0,0,0,4.283-4.283V62.385H13.4a.967.967,0,0,0,.967-.967V56.665H23a12.068,12.068,0,0,0,10.37-5.939L35.7,46.755l8.1,4.677a5.361,5.361,0,0,0,2.685.724,5.417,5.417,0,0,0,1.4-.186,5.355,5.355,0,0,0,2.341-1.32,8.058,8.058,0,0,0,3.382.748,8.187,8.187,0,0,0,2.12-.281,8.077,8.077,0,0,0,4.406-2.985l1.981,1.144a.967.967,0,0,0,1.322-.354L70.614,36.5a.968.968,0,0,0-.352-1.323ZM6.218,65.457a2.351,2.351,0,0,1-2.349,2.349H1.934V36.956H3.869a2.351,2.351,0,0,1,2.349,2.349Zm6.218-5.007H8.152V42.488h4.283ZM31.7,49.747A10.124,10.124,0,0,1,23,54.731H14.37v-4.7H23a5.41,5.41,0,0,0,4.649-2.663l2.308-3.931,4.069,2.349Zm13.068.01-30.3-17.5A3.458,3.458,0,0,1,13.2,27.543l2.819-4.884L43.791,38.693l8.514,4.916L49.486,48.5l0,.006a3.412,3.412,0,0,1-.244.359v0A3.458,3.458,0,0,1,44.769,49.757Zm10.466-.508a6.165,6.165,0,0,1-3.834-.2l2.583-4.473,4.473,2.582a6.165,6.165,0,0,1-3.223,2.093Zm7.017-2.133L56,43.5l-1.887-1.089L32.755,30.087l-15.767-9.1,4.48-7.759a3.458,3.458,0,0,1,4.719-1.263l42.27,24.406Z" transform="translate(0 -9.567)" fill="#111561"/>
  <path id="Path_1680" data-name="Path 1680" d="M103.649,62.376a3.7,3.7,0,0,0,1.854.5,3.723,3.723,0,1,0-1.854-.5Zm.314-4.114a1.775,1.775,0,0,1,1.084-.829,1.787,1.787,0,1,1-1.083.832Z" transform="translate(-45.53 -30.084)" fill="#111561"/>
  <path id="Path_1681" data-name="Path 1681" d="M37.911,46.461l-7.926-4.577a.967.967,0,1,0-.967,1.675l7.928,4.576a.967.967,0,0,0,.965-1.675Z" transform="translate(-12.764 -23.964)" fill="#111561"/>
</svg>
